<svg width="16" height="16" viewBox="0 0 16 16" fill="none" xmlns="http://www.w3.org/2000/svg">
<path d="M14.359 2.25645C14.3377 2.02334 14.1417 1.84521 13.9077 1.84619H3.26152C3.05885 1.82354 2.8762 1.96944 2.85354 2.17211C2.85193 2.18648 2.85119 2.20097 2.85127 2.21542L2.76921 11.8975H0.451287C0.20401 11.9354 0.0163333 12.1402 0 12.3898V13.0667C0.0310176 14.5368 1.19771 15.7304 2.66665 15.7949H11.6513C13.1467 15.795 14.359 14.5827 14.359 13.0873C14.359 13.0805 14.359 13.0736 14.359 13.0668V2.25645ZM2.76925 14.9744C1.70884 14.9747 0.842855 14.1269 0.820515 13.0667V12.718H8.82051V13.0667C8.82263 13.7879 9.11899 14.4769 9.64103 14.9744H2.76925ZM13.5385 13.0667C13.5385 14.143 12.666 15.0155 11.5897 15.0155C10.5135 15.0155 9.64099 14.143 9.64099 13.0667V12.3898C9.64099 12.1642 9.49741 11.8975 9.27176 11.8975H3.58976L3.67182 2.66671H13.5385V13.0667H13.5385Z" fill="#535968"/>
<path d="M4.98472 5.53854H8.16422C8.39081 5.53854 8.57448 5.35487 8.57448 5.12828C8.57448 4.90169 8.39081 4.71802 8.16422 4.71802H4.98472C4.75813 4.71802 4.57446 4.90169 4.57446 5.12828C4.57446 5.35487 4.75813 5.53854 4.98472 5.53854Z" fill="#535968"/>
<path d="M4.98472 7.795H11.4462C11.6728 7.795 11.8565 7.61133 11.8565 7.38475C11.8565 7.15816 11.6728 6.97449 11.4462 6.97449H4.98472C4.75813 6.97449 4.57446 7.15816 4.57446 7.38475C4.57446 7.61133 4.75813 7.795 4.98472 7.795Z" fill="#535968"/>
<path d="M4.98472 10.2564H11.4462C11.6728 10.2564 11.8565 10.0728 11.8565 9.84617C11.8565 9.61959 11.6728 9.43591 11.4462 9.43591H4.98472C4.75813 9.43591 4.57446 9.61959 4.57446 9.84617C4.57446 10.0728 4.75813 10.2564 4.98472 10.2564Z" fill="#535968"/>
<path d="M15.5488 0.205204H4.90269C4.6761 0.205204 4.49243 0.388876 4.49243 0.615462C4.49243 0.842047 4.6761 1.02572 4.90269 1.02572H15.1796V11.4257C15.1796 11.6523 15.3633 11.836 15.5899 11.836C15.8165 11.836 16.0001 11.6523 16.0001 11.4257V0.615462C15.9789 0.382358 15.7829 0.204223 15.5488 0.205204Z" fill="#535968"/>
</svg>
