<svg width="25" height="25" viewBox="0 0 25 25" fill="none" xmlns="http://www.w3.org/2000/svg">
<g clip-path="url(#clip0)">
<path d="M13.9655 12.507L24.682 1.79052C25.0956 1.39106 25.107 0.731969 24.7076 0.318358C24.3081 -0.0952522 23.649 -0.106721 23.2354 0.292736C23.2268 0.301094 23.2182 0.309635 23.2098 0.318358L12.4933 11.0348L1.77677 0.318297C1.36316 -0.0811601 0.704069 -0.0696913 0.304611 0.343919C-0.0850862 0.747403 -0.0850862 1.38703 0.304611 1.79052L11.0211 12.507L0.304611 23.2235C-0.101862 23.63 -0.101862 24.2891 0.304611 24.6956C0.711145 25.102 1.37024 25.102 1.77677 24.6956L12.4933 13.9792L23.2097 24.6956C23.6234 25.0951 24.2824 25.0836 24.6819 24.67C25.0715 24.2665 25.0715 23.6269 24.6819 23.2235L13.9655 12.507Z" fill="#535968"/>
</g>
<defs>
<clipPath id="clip0">
<rect width="25" height="25" fill="white"/>
</clipPath>
</defs>
</svg>
