<svg width="16" height="16" viewBox="0 0 16 16" fill="none" xmlns="http://www.w3.org/2000/svg">
<g clip-path="url(#clip0)">
<path d="M6.33333 5.33333H1C0.448667 5.33333 0 4.88467 0 4.33333V1C0 0.448667 0.448667 0 1 0H6.33333C6.88467 0 7.33333 0.448667 7.33333 1V4.33333C7.33333 4.88467 6.88467 5.33333 6.33333 5.33333ZM1 0.666667C0.816667 0.666667 0.666667 0.816 0.666667 1V4.33333C0.666667 4.51733 0.816667 4.66667 1 4.66667H6.33333C6.51667 4.66667 6.66667 4.51733 6.66667 4.33333V1C6.66667 0.816 6.51667 0.666667 6.33333 0.666667H1Z" fill="#535968"/>
<path d="M6.33333 16H1C0.448667 16 0 15.5514 0 15V7.66669C0 7.11535 0.448667 6.66669 1 6.66669H6.33333C6.88467 6.66669 7.33333 7.11535 7.33333 7.66669V15C7.33333 15.5514 6.88467 16 6.33333 16ZM1 7.33335C0.816667 7.33335 0.666667 7.48269 0.666667 7.66669V15C0.666667 15.184 0.816667 15.3334 1 15.3334H6.33333C6.51667 15.3334 6.66667 15.184 6.66667 15V7.66669C6.66667 7.48269 6.51667 7.33335 6.33333 7.33335H1Z" fill="#535968"/>
<path d="M15.0001 16H9.66675C9.11541 16 8.66675 15.5514 8.66675 15V11.6667C8.66675 11.1154 9.11541 10.6667 9.66675 10.6667H15.0001C15.5514 10.6667 16.0001 11.1154 16.0001 11.6667V15C16.0001 15.5514 15.5514 16 15.0001 16ZM9.66675 11.3334C9.48341 11.3334 9.33341 11.4827 9.33341 11.6667V15C9.33341 15.184 9.48341 15.3334 9.66675 15.3334H15.0001C15.1834 15.3334 15.3334 15.184 15.3334 15V11.6667C15.3334 11.4827 15.1834 11.3334 15.0001 11.3334H9.66675Z" fill="#535968"/>
<path d="M15.0001 9.33333H9.66675C9.11541 9.33333 8.66675 8.88467 8.66675 8.33333V1C8.66675 0.448667 9.11541 0 9.66675 0H15.0001C15.5514 0 16.0001 0.448667 16.0001 1V8.33333C16.0001 8.88467 15.5514 9.33333 15.0001 9.33333ZM9.66675 0.666667C9.48341 0.666667 9.33341 0.816 9.33341 1V8.33333C9.33341 8.51733 9.48341 8.66667 9.66675 8.66667H15.0001C15.1834 8.66667 15.3334 8.51733 15.3334 8.33333V1C15.3334 0.816 15.1834 0.666667 15.0001 0.666667H9.66675Z" fill="#535968"/>
</g>
<defs>
<clipPath id="clip0">
<rect width="16" height="16" fill="white"/>
</clipPath>
</defs>
</svg>
