<svg width="25" height="25" viewBox="0 0 25 25" fill="none" xmlns="http://www.w3.org/2000/svg">
<path d="M12.5 0C5.59642 0 0 5.59642 0 12.5C0 19.4036 5.59642 25 12.5 25C19.4036 25 25 19.4036 25 12.5C24.992 5.59975 19.4003 0.00801411 12.5 0ZM12.5 24.1935C6.04183 24.1935 0.806452 18.9582 0.806452 12.5C0.806452 6.04183 6.04183 0.806452 12.5 0.806452C18.9582 0.806452 24.1935 6.04183 24.1935 12.5C24.1864 18.9552 18.9552 24.1864 12.5 24.1935Z" fill="#CA8787"/>
<path d="M18.2025 6.79766C18.045 6.64025 17.7898 6.64025 17.6323 6.79766L12.5001 11.9299L7.36782 6.79766C7.21314 6.63748 6.95784 6.63305 6.79766 6.78773C6.63748 6.94242 6.63305 7.19771 6.78773 7.35789C6.79096 7.36127 6.79429 7.36455 6.79766 7.36782L11.9299 12.5001L6.79766 17.6323C6.63748 17.7871 6.63305 18.0423 6.78778 18.2025C6.94252 18.3627 7.19776 18.3671 7.35794 18.2124C7.36132 18.2092 7.3646 18.2058 7.36782 18.2025L12.5001 13.0702L17.6323 18.2025C17.7925 18.3572 18.0478 18.3528 18.2025 18.1926C18.3535 18.0364 18.3535 17.7886 18.2025 17.6323L13.0702 12.5001L18.2025 7.36782C18.3599 7.21036 18.3599 6.95512 18.2025 6.79766Z" fill="#CA8787"/>
</svg>
