<svg width="20" height="20" viewBox="0 0 20 20" fill="none" xmlns="http://www.w3.org/2000/svg">
<path d="M0 4.93768V15.0621C0 16.4572 1.13808 17.5952 2.53314 17.5952H10.7159C12.111 17.5952 13.249 16.4572 13.249 15.0621V13.4223C13.249 13.1449 13.0247 12.9206 12.7473 12.9206C12.4699 12.9206 12.2456 13.1449 12.2456 13.4223V15.0621C12.2456 15.9065 11.5562 16.5959 10.7118 16.5959H2.53314C1.68876 16.5959 0.999388 15.9065 0.999388 15.0621V4.93768C0.999388 4.0933 1.68876 3.40393 2.53314 3.40393H10.7159C11.5603 3.40393 12.2496 4.0933 12.2496 4.93768V6.5775C12.2496 6.85488 12.474 7.07923 12.7514 7.07923C13.0288 7.07923 13.2531 6.85488 13.2531 6.5775V4.93768C13.2531 3.54262 12.115 2.40454 10.72 2.40454H2.53314C1.13808 2.40454 0 3.53854 0 4.93768Z" fill="#535968"/>
<path d="M15.721 13.773C15.8189 13.8709 15.9454 13.9199 16.0759 13.9199C16.2064 13.9199 16.3329 13.8709 16.4308 13.773L19.8532 10.3506C20.049 10.1548 20.049 9.84073 19.8532 9.64493L16.4308 6.22253C16.235 6.02673 15.9209 6.02673 15.7251 6.22253C15.5293 6.41833 15.5293 6.73243 15.7251 6.92822L18.2949 9.49809H8.91702C8.63964 9.49809 8.41528 9.72244 8.41528 9.99982C8.41528 10.2772 8.63964 10.5016 8.91702 10.5016H18.2909L15.721 13.0714C15.5252 13.2631 15.5252 13.5813 15.721 13.773Z" fill="#535968"/>
</svg>
