<svg width="25" height="25" viewBox="0 0 25 25" fill="none" xmlns="http://www.w3.org/2000/svg">
<path d="M0.778655 13.2003L22.4477 13.2003L15.9652 19.6579C15.6608 19.9624 15.6608 20.4553 15.9652 20.759C16.2697 21.0634 16.7626 21.0634 17.0663 20.759L24.7751 13.0508C25.075 12.751 25.075 12.2496 24.7751 11.9498L17.0662 4.24087C16.7618 3.9364 16.2689 3.9364 15.9652 4.24087C15.6607 4.54535 15.6607 5.03824 15.9652 5.34193L22.4477 11.643L0.77872 11.643C0.348873 11.643 6.35165e-05 11.9919 6.35165e-05 12.4217C6.35165e-05 12.8515 0.348873 13.2003 0.778655 13.2003Z" fill="#535968"/>
</svg>
