<svg width="25" height="25" viewBox="0 0 25 25" fill="none" xmlns="http://www.w3.org/2000/svg">
<path d="M12.5067 0.783725C7.76648 0.782872 3.49272 3.63808 1.67877 8.01751C-0.134844 12.3971 0.868336 17.438 4.2212 20.7888C8.79732 25.3649 16.2163 25.3649 20.7923 20.7888C25.3682 16.213 25.3682 8.79397 20.7923 4.21786C18.5997 2.01277 15.6162 0.776214 12.5067 0.783725ZM12.5067 23.1328C6.64686 23.1328 1.87732 18.3631 1.87732 12.5033C1.87732 6.64352 6.64686 1.87398 12.5067 1.87398C18.3665 1.87398 23.1362 6.64352 23.1362 12.5033C23.1362 18.3631 18.3665 23.1328 12.5067 23.1328Z" fill="#A8BF98"/>
<path d="M18.0776 8.90031L11.0405 15.6267L7.20291 11.7946C6.9907 11.5824 6.64669 11.5824 6.4343 11.7946C6.22209 12.007 6.22209 12.351 6.4343 12.5634L10.648 16.7771C10.7502 16.8798 10.8899 16.9369 11.035 16.935C11.1757 16.9363 11.3111 16.8814 11.4111 16.7824L18.8298 9.69077C19.0449 9.48231 19.0519 9.1395 18.8457 8.92251C18.6391 8.70569 18.2964 8.69578 18.0776 8.90031Z" fill="#A8BF98"/>
</svg>
