<svg width="16" height="16" viewBox="0 0 16 16" fill="none" xmlns="http://www.w3.org/2000/svg">
<path d="M11.0144 6.875C11.0144 6.52981 10.7346 6.25 10.3894 6.25H3.95191C3.60672 6.25 3.3269 6.52981 3.3269 6.875C3.3269 7.22019 3.60672 7.5 3.95191 7.5H10.3894C10.7346 7.5 11.0144 7.22019 11.0144 6.875Z" fill="#535968"/>
<path d="M3.9519 8.75C3.60672 8.75 3.3269 9.02981 3.3269 9.375C3.3269 9.72019 3.60672 10 3.9519 10H7.86161C8.2068 10 8.48661 9.72019 8.48661 9.375C8.48661 9.02981 8.2068 8.75 7.86161 8.75H3.9519Z" fill="#535968"/>
<path d="M5.4206 14.75H3.33032C2.64107 14.75 2.08032 14.1892 2.08032 13.5V2.5C2.08032 1.81075 2.64107 1.25 3.33032 1.25H11.0144C11.7036 1.25 12.2644 1.81075 12.2644 2.5V6.34375C12.2644 6.68894 12.5442 6.96875 12.8894 6.96875C13.2345 6.96875 13.5144 6.68894 13.5144 6.34375V2.5C13.5144 1.1215 12.3929 0 11.0144 0H3.33032C1.95182 0 0.830322 1.1215 0.830322 2.5V13.5C0.830322 14.8785 1.95182 16 3.33032 16H5.4206C5.76579 16 6.0456 15.7202 6.0456 15.375C6.0456 15.0298 5.76579 14.75 5.4206 14.75Z" fill="#535968"/>
<path d="M14.6215 9.0491C13.8904 8.31804 12.7009 8.31801 11.9703 9.0486L8.539 12.4724C8.46612 12.5451 8.41237 12.6346 8.38243 12.7331L7.63515 15.1933C7.5689 15.4114 7.62662 15.6483 7.78581 15.8114C7.90506 15.9336 8.06706 16 8.23322 16C8.28881 16 8.34493 15.9925 8.40003 15.9773L10.9227 15.2785C11.0265 15.2497 11.1211 15.1946 11.1974 15.1185L14.6215 11.7008C15.3526 10.9697 15.3526 9.78023 14.6215 9.0491ZM10.4306 14.1177L9.1615 14.4693L9.5329 13.2465L11.8482 10.9364L12.7322 11.8204L10.4306 14.1177ZM13.7381 10.8165L13.617 10.9374L12.7331 10.0535L12.8538 9.93304C13.0975 9.68935 13.494 9.68935 13.7377 9.93304C13.9813 10.1767 13.9813 10.5732 13.7381 10.8165Z" fill="#535968"/>
<path d="M10.3894 3.75H3.95191C3.60672 3.75 3.3269 4.02981 3.3269 4.375C3.3269 4.72019 3.60672 5 3.95191 5H10.3894C10.7346 5 11.0144 4.72019 11.0144 4.375C11.0144 4.02981 10.7346 3.75 10.3894 3.75Z" fill="#535968"/>
</svg>
