<svg width="25" height="25" viewBox="0 0 25 25" fill="none" xmlns="http://www.w3.org/2000/svg">
<g clip-path="url(#clip0)">
<path d="M23.074 15.7049C22.7301 15.7049 22.4514 15.9836 22.4514 16.3275V21.8558C22.4502 22.887 21.6147 23.7227 20.5835 23.7237H3.11315C2.08192 23.7227 1.24648 22.887 1.24526 21.8558V5.63073C1.24648 4.59974 2.08192 3.76405 3.11315 3.76284H8.64142C8.98532 3.76284 9.26405 3.48411 9.26405 3.14021C9.26405 2.79655 8.98532 2.51758 8.64142 2.51758H3.11315C1.39459 2.51952 0.00194572 3.91217 0 5.63073V21.8561C0.00194572 23.5746 1.39459 24.9673 3.11315 24.9692H20.5835C22.3021 24.9673 23.6947 23.5746 23.6966 21.8561V16.3275C23.6966 15.9836 23.4179 15.7049 23.074 15.7049Z" fill="#90A5CC"/>
<path d="M23.4501 0.915516C22.3559 -0.178707 20.5819 -0.178707 19.4877 0.915516L8.37959 12.0236C8.30346 12.0997 8.2485 12.1941 8.2198 12.2977L6.75905 17.5713C6.69897 17.7876 6.76002 18.0191 6.9186 18.1779C7.07742 18.3365 7.30896 18.3975 7.52518 18.3377L12.7988 16.8767C12.9024 16.848 12.9968 16.7931 13.0729 16.7169L24.1808 5.60859C25.2733 4.51363 25.2733 2.74108 24.1808 1.64613L23.4501 0.915516ZM9.73624 12.4283L18.8274 3.33696L21.7593 6.26891L12.668 15.3603L9.73624 12.4283ZM9.15058 13.6035L11.493 15.9462L8.25287 16.8439L9.15058 13.6035ZM23.3003 4.72815L22.64 5.38848L19.7078 2.45628L20.3684 1.79595C20.9762 1.18816 21.9617 1.18816 22.5695 1.79595L23.3003 2.52657C23.9072 3.13509 23.9072 4.11987 23.3003 4.72815Z" fill="#90A5CC"/>
</g>
<defs>
<clipPath id="clip0">
<rect width="25" height="25" fill="white"/>
</clipPath>
</defs>
</svg>
