<svg width="25" height="25" viewBox="0 0 25 25" fill="none" xmlns="http://www.w3.org/2000/svg">
<path d="M24.8407 18.0953L12.8807 6.13524C12.6684 5.92302 12.3243 5.92302 12.1119 6.13524L0.151898 18.0953C-0.0567063 18.3112 -0.0507433 18.6554 0.165251 18.864C0.375944 19.0675 0.709924 19.0675 0.920618 18.864L12.4958 7.28886L24.0709 18.8651C24.2868 19.0737 24.631 19.0677 24.8396 18.8518C25.0431 18.6411 25.0431 18.307 24.8396 18.0964L24.8407 18.0953Z" fill="#535968"/>
<path d="M24.4558 19.0237C24.3115 19.024 24.173 18.9669 24.0709 18.865L12.4957 7.28876L0.920617 18.865C0.704675 19.0736 0.360501 19.0676 0.151898 18.8516C-0.0516092 18.6409 -0.0516092 18.3069 0.151898 18.0962L12.1119 6.13622C12.3242 5.924 12.6683 5.924 12.8806 6.13622L24.8407 18.0962C25.0526 18.3089 25.0521 18.6531 24.8394 18.8651C24.7376 18.9666 24.5996 19.0237 24.4558 19.0237Z" fill="#535968"/>
</svg>